<?xml version="1.0" encoding="utf-8"?>
<!-- Generator: Adobe Illustrator 24.1.2, SVG Export Plug-In . SVG Version: 6.00 Build 0)  -->
<svg version="1.1" xmlns="http://www.w3.org/2000/svg" xmlns:xlink="http://www.w3.org/1999/xlink" x="0px" y="0px"
	 viewBox="0 0 173.72 173.8" style="enable-background:new 0 0 173.72 173.8;" xml:space="preserve">
<style type="text/css">
	.st0{display:none;}
	.st1{fill:#E6E7E8;}
	.st2{fill:url(#SVGID_1_);}
	.st3{fill:#40BBEC;}
	.st4{fill:#43BBEC;}
	.st5{fill:#FFFFFF;}
	.st6{fill:none;stroke:#000000;stroke-width:3;stroke-miterlimit:10;}
	.st7{fill:none;stroke:#40BBEC;stroke-width:2;stroke-miterlimit:10;}
	.st8{fill:none;}
</style>
<g id="Layer_1" class="st0">
</g>
<g id="Layer_3" class="st0">
</g>
<g id="Layer_2">
	<circle class="st1" cx="86.86" cy="86.86" r="86.86"/>
</g>
<g id="Layer_4">
	<g>
		<g>
			<g>
				<g>
					<g>
						<linearGradient id="SVGID_1_" gradientUnits="userSpaceOnUse" x1="189.0936" y1="75.334" x2="189.5936" y2="75.334">
							<stop  offset="0" style="stop-color:#FFFFFF"/>
							<stop  offset="1" style="stop-color:#000000"/>
						</linearGradient>
						<path class="st2" d="M32.53,28.39h21.25c13.65,0,23.68,5.05,23.68,19.76c0,7.55-3.41,14.9-9.22,17.35v0.49
							c7.35,2.01,12.76,8.19,12.76,19.02c0,16.03-10.89,23.53-25.51,23.53H32.53V28.39z M52.72,61.48c9.26,0,13.2-4.36,13.2-11.32
							c0-7.75-4.35-10.69-12.96-10.69h-8.65v22.01H52.72z M54.26,97.47c9.75,0,15.19-4.22,15.19-13.24
							c0-8.43-5.28-12.11-15.19-12.11h-9.95v25.34H54.26z"/>
					</g>
					<g>
						<g>
							<path class="st3" d="M32.53,28.39h21.25c13.65,0,23.68,5.05,23.68,19.76c0,7.55-3.41,14.9-9.22,17.35v0.49
								c7.35,2.01,12.76,8.19,12.76,19.02c0,16.03-10.89,23.53-25.51,23.53H32.53V28.39z M52.72,61.48c9.26,0,13.2-4.36,13.2-11.32
								c0-7.75-4.35-10.69-12.96-10.69h-8.65v22.01H52.72z M54.26,97.47c9.75,0,15.19-4.22,15.19-13.24
								c0-8.43-5.28-12.11-15.19-12.11h-9.95v25.34H54.26z"/>
						</g>
					</g>
				</g>
				<rect x="35.86" y="70.76" class="st4" width="35.01" height="28.56"/>
				<rect x="34.18" y="33.92" class="st4" width="33.55" height="28.56"/>
			</g>
			<ellipse class="st5" cx="53.41" cy="48.24" rx="9.97" ry="9.78"/>
			<ellipse class="st5" cx="53.41" cy="87.14" rx="10.17" ry="9.97"/>
			<circle class="st6" cx="86.83" cy="86.82" r="85.18"/>
		</g>
		<g id="XMLID_1_">
			<g>
				<path class="st5" d="M142.61,131.77c5.1,0.76,4.65,7.39,1.04,7.09c-11.27,0.31-59.63-35.82-59.63-80.09
					c0-16.57,13.34-29.98,29.81-29.98c25.89-0.09,30.88,17.42,30.88,25.07c0,11.04-4.58,18.58-8.92,18.58
					c-3.35,0.24-8.78-0.8-11.25-5.45c-2.47-7.75,3.04-16.57,15.17-12.3c-0.29-10.58-11.12-20.34-21.95-20.34
					c-11.9,1.02-20.45,12.51-19.29,29.42c-0.3,26.69,28.59,64.42,44.14,67.96V131.77z"/>
			</g>
			<g>
				<path class="st7" d="M84.02,58.77c0,44.27,48.36,80.4,59.63,80.09"/>
				<path class="st7" d="M84.02,58.77c0-16.57,13.34-29.98,29.81-29.98"/>
				<path class="st7" d="M113.83,28.8c25.89-0.09,30.88,17.42,30.88,25.07"/>
				<path class="st7" d="M144.71,53.87c0,11.04-4.58,18.58-8.92,18.58"/>
				<path class="st7" d="M135.79,72.45c-3.35,0.24-8.78-0.8-11.25-5.45"/>
				<path class="st7" d="M124.54,67c-2.47-7.75,3.04-16.57,15.17-12.3h0.01"/>
				<path class="st7" d="M117.76,34.36c-11.9,1.02-20.45,12.51-19.29,29.42"/>
				<path class="st7" d="M139.72,55.13c0-0.15,0-0.29-0.01-0.43c-0.29-10.58-11.12-20.34-21.95-20.34"/>
				<path class="st7" d="M98.47,63.78c-0.3,26.69,28.59,64.42,44.14,67.96"/>
				<path class="st7" d="M141.7,131.7c0.32,0,0.62,0.03,0.9,0.07c5.1,0.76,4.65,7.39,1.04,7.09"/>
			</g>
		</g>
	</g>
	<circle class="st8" cx="87.01" cy="85.82" r="85"/>
</g>
</svg>
